<svg xmlns="http://www.w3.org/2000/svg" width="3840" height="1646" viewBox="0 0 3840 1646"><defs>
  <radialGradient id="corgi" cx="42%" cy="34%" r="75%"><stop offset="0" stop-color="#F9C07E"/><stop offset="1" stop-color="#E8912F"/></radialGradient>
  <linearGradient id="corgiEar" x1="0" y1="0" x2="0" y2="1"><stop offset="0" stop-color="#E8912F"/><stop offset="1" stop-color="#CF7A22"/></linearGradient>
  <radialGradient id="husky" cx="42%" cy="32%" r="78%"><stop offset="0" stop-color="#CBD7E2"/><stop offset="1" stop-color="#9DB1C4"/></radialGradient>
  <radialGradient id="poodle" cx="42%" cy="32%" r="78%"><stop offset="0" stop-color="#F6D3E6"/><stop offset="1" stop-color="#E6A7CC"/></radialGradient>
  <radialGradient id="golden" cx="42%" cy="32%" r="78%"><stop offset="0" stop-color="#FAD86A"/><stop offset="1" stop-color="#ECB62E"/></radialGradient>
  <radialGradient id="shiba" cx="42%" cy="32%" r="78%"><stop offset="0" stop-color="#F0A074"/><stop offset="1" stop-color="#D96E43"/></radialGradient>
  <radialGradient id="eye" cx="38%" cy="34%" r="70%"><stop offset="0" stop-color="#4a4a4a"/><stop offset="1" stop-color="#1d1d1d"/></radialGradient>
  <radialGradient id="sky" cx="50%" cy="38%" r="75%"><stop offset="0" stop-color="#FFFBF4"/><stop offset="1" stop-color="#FBE6CC"/></radialGradient>
</defs><rect width="3840" height="1646" fill="url(#sky)"/><g><polygon points="2150.4,658.4000000000001 5930.4,658.4000000000001 6050.4,658.4000000000001" fill="#F6B86A" opacity="0.05"/><polygon points="2150.4,658.4000000000001 5415.937550532244,2578.3999999999996 5535.937550532244,2578.3999999999996" fill="#F6B86A" opacity="0.05"/><polygon points="2150.4,658.4000000000001 4010.4000000000005,3983.937550532244 4130.400000000001,3983.937550532244" fill="#F6B86A" opacity="0.05"/><polygon points="2150.4,658.4000000000001 2090.4000000000005,4498.4 2210.4000000000005,4498.4" fill="#F6B86A" opacity="0.05"/><polygon points="2150.4,658.4000000000001 170.400000000001,3983.9375505322446 290.400000000001,3983.9375505322446" fill="#F6B86A" opacity="0.05"/><polygon points="2150.4,658.4000000000001 -1235.1375505322444,2578.3999999999996 -1115.1375505322444,2578.3999999999996" fill="#F6B86A" opacity="0.05"/><polygon points="2150.4,658.4000000000001 -1749.6,658.4000000000005 -1629.6,658.4000000000005" fill="#F6B86A" opacity="0.05"/><polygon points="2150.4,658.4000000000001 -1235.137550532244,-1261.6000000000004 -1115.137550532244,-1261.6000000000004" fill="#F6B86A" opacity="0.05"/><polygon points="2150.4,658.4000000000001 170.39999999999827,-2667.1375505322435 290.3999999999983,-2667.1375505322435" fill="#F6B86A" opacity="0.05"/><polygon points="2150.4,658.4000000000001 2090.399999999999,-3181.6 2210.399999999999,-3181.6" fill="#F6B86A" opacity="0.05"/><polygon points="2150.4,658.4000000000001 4010.4000000000005,-2667.137550532244 4130.400000000001,-2667.137550532244" fill="#F6B86A" opacity="0.05"/><polygon points="2150.4,658.4000000000001 5415.937550532244,-1261.6000000000017 5535.937550532244,-1261.6000000000017" fill="#F6B86A" opacity="0.05"/></g><g transform="translate(2841.6,263.36) rotate(-18) scale(2.4)" fill="#E8B07A" opacity="0.5"><rect x="-14" y="-5" width="28" height="10" rx="5"/><circle cx="-14" cy="-6" r="7"/><circle cx="-14" cy="6" r="7"/><circle cx="14" cy="-6" r="7"/><circle cx="14" cy="6" r="7"/></g><g transform="translate(3225.6,493.79999999999995) rotate(12) scale(2.2)" fill="#E8B07A" opacity="0.45"><ellipse cx="0" cy="6" rx="12" ry="10"/><circle cx="-11" cy="-9" r="5"/><circle cx="-3" cy="-14" r="5"/><circle cx="6" cy="-14" r="5"/><circle cx="14" cy="-9" r="5"/></g><g transform="translate(2611.2000000000003,164.60000000000002) rotate(-8) scale(1.8)" fill="#EAC08E" opacity="0.4"><ellipse cx="0" cy="6" rx="12" ry="10"/><circle cx="-11" cy="-9" r="5"/><circle cx="-3" cy="-14" r="5"/><circle cx="6" cy="-14" r="5"/><circle cx="14" cy="-9" r="5"/></g><g transform="translate(3456.0,905.3000000000001) rotate(24) scale(2.0)" fill="#E8B07A" opacity="0.4"><rect x="-14" y="-5" width="28" height="10" rx="5"/><circle cx="-14" cy="-6" r="7"/><circle cx="-14" cy="6" r="7"/><circle cx="14" cy="-6" r="7"/><circle cx="14" cy="6" r="7"/></g><g transform="translate(1152.0,197.51999999999998) rotate(-16) scale(1.6)" fill="#EAC08E" opacity="0.35"><ellipse cx="0" cy="6" rx="12" ry="10"/><circle cx="-11" cy="-9" r="5"/><circle cx="-3" cy="-14" r="5"/><circle cx="6" cy="-14" r="5"/><circle cx="14" cy="-9" r="5"/></g><g transform="translate(1680.0,831.2299999999999) rotate(-7.5)"><rect x="-279.82" y="-279.82" width="559.64" height="559.64" rx="89.5424" fill="#7FB3E0" stroke="#6E5B44" stroke-width="25.183799999999998"/><rect x="-279.82" y="-279.82" width="559.64" height="279.82" rx="89.5424" fill="#ffffff" opacity="0.18"/><g transform="translate(0,16.789199999999997) scale(1.67892) translate(-120,-120)"><g><ellipse cx="120" cy="212" rx="70" ry="14" fill="rgba(0,0,0,.12)"/><path d="M60 108 Q40 36 86 76 Z" fill="#5C6B7A"/><path d="M180 108 Q200 36 154 76 Z" fill="#5C6B7A"/><ellipse cx="120" cy="130" rx="86" ry="80" fill="url(#husky)"/><path d="M120 60 Q54 68 60 150 Q90 120 120 120 Q150 120 180 150 Q186 68 120 60 Z" fill="#5C6B7A"/><ellipse cx="120" cy="168" rx="46" ry="34" fill="#F3F5F7"/><ellipse cx="78" cy="150" rx="12" ry="9" fill="#FF9E9E" opacity=".4"/><ellipse cx="162" cy="150" rx="12" ry="9" fill="#FF9E9E" opacity=".4"/><circle cx="90" cy="120" r="15" fill="#5AA9E6"/><circle cx="150" cy="120" r="15" fill="#5AA9E6"/><circle cx="90" cy="120" r="7" fill="#1d2b36"/><circle cx="150" cy="120" r="7" fill="#1d2b36"/><circle cx="95" cy="114" r="4.5" fill="#fff"/><circle cx="155" cy="114" r="4.5" fill="#fff"/><path d="M108 156 Q120 170 132 156 Q120 150 108 156 Z" fill="#2B2B2B"/><path d="M120 166 V180" stroke="#2B2B2B" stroke-width="3.2" stroke-linecap="round"/><path d="M120 180 Q107 193 94 184 M120 180 Q133 193 146 184" stroke="#2B2B2B" stroke-width="3.2" fill="none" stroke-linecap="round"/></g></g></g><g transform="translate(2198.3999999999996,913.53) rotate(-2.5)"><rect x="-279.82" y="-279.82" width="559.64" height="559.64" rx="89.5424" fill="#F2CE5E" stroke="#6E5B44" stroke-width="25.183799999999998"/><rect x="-279.82" y="-279.82" width="559.64" height="279.82" rx="89.5424" fill="#ffffff" opacity="0.18"/><g transform="translate(0,16.789199999999997) scale(1.67892) translate(-120,-120)"><g><ellipse cx="120" cy="212" rx="70" ry="14" fill="rgba(0,0,0,.12)"/><ellipse cx="48" cy="150" rx="27" ry="50" transform="rotate(-14 48 150)" fill="#E0A93C"/><ellipse cx="192" cy="150" rx="27" ry="50" transform="rotate(14 192 150)" fill="#E0A93C"/><ellipse cx="120" cy="130" rx="86" ry="80" fill="url(#golden)"/><ellipse cx="120" cy="168" rx="46" ry="34" fill="#FBE7B0"/><ellipse cx="78" cy="150" rx="12" ry="9" fill="#FF9E9E" opacity=".4"/><ellipse cx="162" cy="150" rx="12" ry="9" fill="#FF9E9E" opacity=".4"/><circle cx="90" cy="120" r="15" fill="url(#eye)"/><circle cx="150" cy="120" r="15" fill="url(#eye)"/><circle cx="95" cy="114" r="4.5" fill="#fff"/><circle cx="155" cy="114" r="4.5" fill="#fff"/><path d="M108 156 Q120 170 132 156 Q120 150 108 156 Z" fill="#2B2B2B"/><path d="M120 166 V180" stroke="#2B2B2B" stroke-width="3.2" stroke-linecap="round"/><path d="M120 180 Q107 193 94 184 M120 180 Q133 193 146 184" stroke="#2B2B2B" stroke-width="3.2" fill="none" stroke-linecap="round"/></g></g></g><g transform="translate(2716.8,913.53) rotate(2.5)"><rect x="-279.82" y="-279.82" width="559.64" height="559.64" rx="89.5424" fill="#EC87A6" stroke="#6E5B44" stroke-width="25.183799999999998"/><rect x="-279.82" y="-279.82" width="559.64" height="279.82" rx="89.5424" fill="#ffffff" opacity="0.18"/><g transform="translate(0,16.789199999999997) scale(1.67892) translate(-120,-120)"><g><ellipse cx="120" cy="212" rx="70" ry="14" fill="rgba(0,0,0,.12)"/><circle cx="120" cy="60" r="30" fill="#F2C3DC"/><circle cx="98" cy="74" r="20" fill="#F2C3DC"/><circle cx="142" cy="74" r="20" fill="#F2C3DC"/><ellipse cx="48" cy="150" rx="27" ry="50" transform="rotate(-14 48 150)" fill="#E7B4CE"/><ellipse cx="192" cy="150" rx="27" ry="50" transform="rotate(14 192 150)" fill="#E7B4CE"/><ellipse cx="120" cy="130" rx="86" ry="80" fill="url(#poodle)"/><ellipse cx="120" cy="168" rx="46" ry="34" fill="#FBECF4"/><ellipse cx="78" cy="150" rx="12" ry="9" fill="#FF9E9E" opacity=".4"/><ellipse cx="162" cy="150" rx="12" ry="9" fill="#FF9E9E" opacity=".4"/><circle cx="90" cy="120" r="15" fill="url(#eye)"/><circle cx="150" cy="120" r="15" fill="url(#eye)"/><circle cx="95" cy="114" r="4.5" fill="#fff"/><circle cx="155" cy="114" r="4.5" fill="#fff"/><path d="M108 156 Q120 170 132 156 Q120 150 108 156 Z" fill="#2B2B2B"/><path d="M120 166 V180" stroke="#2B2B2B" stroke-width="3.2" stroke-linecap="round"/><path d="M120 180 Q107 193 94 184 M120 180 Q133 193 146 184" stroke="#2B2B2B" stroke-width="3.2" fill="none" stroke-linecap="round"/></g></g></g><g transform="translate(3235.2,831.2299999999999) rotate(7.5)"><rect x="-279.82" y="-279.82" width="559.64" height="559.64" rx="89.5424" fill="#8FD08A" stroke="#6E5B44" stroke-width="25.183799999999998"/><rect x="-279.82" y="-279.82" width="559.64" height="279.82" rx="89.5424" fill="#ffffff" opacity="0.18"/><g transform="translate(0,16.789199999999997) scale(1.67892) translate(-120,-120)"><g><ellipse cx="120" cy="212" rx="70" ry="14" fill="rgba(0,0,0,.12)"/><path d="M60 108 Q40 36 86 76 Z" fill="#C8573A"/><path d="M180 108 Q200 36 154 76 Z" fill="#C8573A"/><ellipse cx="120" cy="130" rx="86" ry="80" fill="url(#shiba)"/><ellipse cx="120" cy="168" rx="46" ry="34" fill="#FBEEE4"/><ellipse cx="78" cy="150" rx="12" ry="9" fill="#FF9E9E" opacity=".4"/><ellipse cx="162" cy="150" rx="12" ry="9" fill="#FF9E9E" opacity=".4"/><circle cx="90" cy="120" r="15" fill="url(#eye)"/><circle cx="150" cy="120" r="15" fill="url(#eye)"/><circle cx="95" cy="114" r="4.5" fill="#fff"/><circle cx="155" cy="114" r="4.5" fill="#fff"/><path d="M108 156 Q120 170 132 156 Q120 150 108 156 Z" fill="#2B2B2B"/><path d="M120 166 V180" stroke="#2B2B2B" stroke-width="3.2" stroke-linecap="round"/><path d="M120 180 Q107 193 94 184 M120 180 Q133 193 146 184" stroke="#2B2B2B" stroke-width="3.2" fill="none" stroke-linecap="round"/></g></g></g><g transform="translate(768.0,1086.36) rotate(0) scale(4.252166666666667) translate(-120,-120)"><g><ellipse cx="120" cy="212" rx="70" ry="14" fill="rgba(0,0,0,.12)"/><path d="M60 108 Q40 36 86 76 Z" fill="url(#corgiEar)"/><path d="M180 108 Q200 36 154 76 Z" fill="url(#corgiEar)"/><ellipse cx="120" cy="130" rx="86" ry="80" fill="url(#corgi)"/><ellipse cx="120" cy="168" rx="46" ry="34" fill="#FCEBD2"/><ellipse cx="78" cy="150" rx="12" ry="9" fill="#FF9E9E" opacity=".4"/><ellipse cx="162" cy="150" rx="12" ry="9" fill="#FF9E9E" opacity=".4"/><circle cx="90" cy="120" r="15" fill="url(#eye)"/><circle cx="150" cy="120" r="15" fill="url(#eye)"/><circle cx="95" cy="114" r="4.5" fill="#fff"/><circle cx="155" cy="114" r="4.5" fill="#fff"/><path d="M108 156 Q120 170 132 156 Q120 150 108 156 Z" fill="#2B2B2B"/><path d="M120 166 V180" stroke="#2B2B2B" stroke-width="3.2" stroke-linecap="round"/><path d="M120 180 Q107 193 94 184 M120 180 Q133 193 146 184" stroke="#2B2B2B" stroke-width="3.2" fill="none" stroke-linecap="round"/></g></g><g transform="translate(1459.2,1185.12) rotate(4) scale(3.154833333333334) translate(-120,-120)"><g><ellipse cx="120" cy="212" rx="70" ry="14" fill="rgba(0,0,0,.12)"/><ellipse cx="48" cy="150" rx="27" ry="50" transform="rotate(-14 48 150)" fill="#E0A93C"/><ellipse cx="192" cy="150" rx="27" ry="50" transform="rotate(14 192 150)" fill="#E0A93C"/><ellipse cx="120" cy="130" rx="86" ry="80" fill="url(#golden)"/><ellipse cx="120" cy="168" rx="46" ry="34" fill="#FBE7B0"/><ellipse cx="78" cy="150" rx="12" ry="9" fill="#FF9E9E" opacity=".4"/><ellipse cx="162" cy="150" rx="12" ry="9" fill="#FF9E9E" opacity=".4"/><circle cx="90" cy="120" r="15" fill="url(#eye)"/><circle cx="150" cy="120" r="15" fill="url(#eye)"/><circle cx="95" cy="114" r="4.5" fill="#fff"/><circle cx="155" cy="114" r="4.5" fill="#fff"/><path d="M108 156 Q120 170 132 156 Q120 150 108 156 Z" fill="#2B2B2B"/><path d="M120 166 V180" stroke="#2B2B2B" stroke-width="3.2" stroke-linecap="round"/><path d="M120 180 Q107 193 94 184 M120 180 Q133 193 146 184" stroke="#2B2B2B" stroke-width="3.2" fill="none" stroke-linecap="round"/></g></g></svg>